<svg version="1.1" id="Layer_1" xmlns="http://www.w3.org/2000/svg" xmlns:xlink="http://www.w3.org/1999/xlink" x="0px" y="0px"
	 width="100%" viewBox="0 0 400 200" enable-background="new 0 0 400 200" xml:space="preserve">
<path fill="#FEFEFE" opacity="1.000000" stroke="none" 
	d="
M241.000000,201.000000 
	C160.699921,201.000000 80.899857,201.000000 1.049892,201.000000 
	C1.049892,134.394409 1.049892,67.788757 1.049892,1.091556 
	C134.216690,1.091556 267.433472,1.091556 400.825134,1.091556 
	C400.825134,67.666306 400.825134,134.333099 400.825134,201.000000 
	C347.788849,201.000000 294.644440,201.000000 241.000000,201.000000 
M249.175049,102.663063 
	C252.498154,102.804100 255.820923,103.052185 259.144440,103.063148 
	C265.434540,103.083900 266.460236,101.697723 265.245422,95.023949 
	C262.161438,94.691566 259.025757,94.454010 255.923035,93.994255 
	C251.886566,93.396133 248.819626,91.161232 248.643829,86.992981 
	C248.303772,78.929337 248.544495,70.841187 248.544495,62.296837 
	C252.130173,62.296837 255.424881,62.318924 258.719208,62.292126 
	C265.123932,62.240028 265.901581,61.211918 264.669830,53.823166 
	C259.379883,53.823166 253.978149,53.823166 248.717941,53.823166 
	C247.061340,49.222839 251.092209,41.706150 241.905563,42.474003 
	C239.966202,42.636101 236.795990,42.555969 236.362091,43.541988 
	C235.035690,46.556236 234.766144,50.035549 234.021896,53.641953 
	C225.145554,53.641953 216.084122,53.641953 207.189789,53.641953 
	C205.117401,49.723759 209.594101,42.611412 201.233261,42.502068 
	C198.968323,42.472443 195.330521,42.328201 194.694382,43.511501 
	C193.098663,46.479755 192.859497,50.177288 191.997604,53.924301 
	C190.869736,53.924301 189.553574,53.871052 188.243790,53.939556 
	C186.979523,54.005676 185.721832,54.197395 184.529465,54.326550 
	C184.110199,61.336224 184.110199,61.336224 192.910507,62.972145 
	C192.910507,69.971924 192.909683,77.082581 192.910690,84.193230 
	C192.912506,96.831398 198.175751,102.362473 210.816727,102.973328 
	C212.810837,103.069687 214.810501,103.082733 216.807556,103.080513 
	C223.776382,103.072746 224.482574,102.235718 223.561050,95.017311 
	C220.321869,94.672546 217.019226,94.490265 213.781754,93.930855 
	C210.244675,93.319687 207.191086,91.399399 207.041275,87.603279 
	C206.715546,79.349930 206.940750,71.074829 206.940750,62.642281 
	C216.213928,62.642281 225.267380,62.642281 234.769302,62.642281 
	C234.769302,70.435646 234.761963,77.891663 234.771088,85.347672 
	C234.783920,95.837296 238.153397,100.076851 249.175049,102.663063 
M158.538177,94.709274 
	C154.217819,94.586655 149.866013,94.749458 145.584076,94.277962 
	C138.212128,93.466225 135.833237,89.894638 137.214554,82.081680 
	C138.143066,82.081680 139.125778,82.081772 140.108505,82.081657 
	C150.927200,82.080368 161.746338,82.137970 172.564392,82.054344 
	C178.491180,82.008537 181.050522,79.471519 181.460861,73.635567 
	C182.144455,63.913628 177.425873,56.377548 167.784836,55.326298 
	C157.500870,54.204941 146.902893,54.361103 136.604736,55.470306 
	C128.107681,56.385513 123.695145,62.124973 122.693504,70.758568 
	C122.141273,75.518417 121.997421,80.418724 122.444176,85.183060 
	C123.558540,97.066948 129.681305,102.683746 141.688095,102.963089 
	C152.168350,103.206909 162.657745,103.090561 173.143005,103.074226 
	C179.193802,103.064789 180.514954,101.178810 178.873184,94.709137 
	C172.481247,94.709137 166.004318,94.709137 158.538177,94.709274 
M275.380463,58.801216 
	C271.019867,62.022900 269.247925,66.583931 268.965088,71.767738 
	C268.747711,75.752579 268.704010,79.762360 268.865814,83.749573 
	C269.378448,96.382278 275.618195,102.667572 288.232819,102.962685 
	C298.555450,103.204170 308.887238,103.083862 319.214905,103.075569 
	C325.676758,103.070381 326.472076,102.045364 325.473511,94.711349 
	C323.599396,94.711349 321.644867,94.730186 319.690796,94.708153 
	C310.535004,94.604912 301.355591,94.856331 292.230927,94.265976 
	C284.717529,93.779861 282.510651,90.330818 283.409515,82.079262 
	C285.001495,82.079262 286.639832,82.079506 288.278137,82.079224 
	C298.606262,82.077454 308.934448,82.053741 319.262482,82.083595 
	C323.915436,82.097038 326.894043,79.950722 327.851288,75.390114 
	C329.556976,67.263710 325.679596,58.652679 317.781952,56.378830 
	C303.803650,52.354290 289.613251,51.613037 275.380463,58.801216 
M39.665756,65.904305 
	C45.225460,76.693771 50.854904,87.448151 56.310833,98.289841 
	C58.519913,102.679573 62.202183,103.835121 66.625488,103.776337 
	C70.824158,103.720535 74.439728,102.781258 76.438843,98.406868 
	C78.371346,94.178230 80.745399,90.153000 82.876320,86.013100 
	C88.257874,75.557877 93.611763,65.088417 99.044380,54.492741 
	C87.542702,52.686604 85.223335,53.867870 80.680656,63.520874 
	C79.759697,65.477875 78.843727,67.437279 77.912567,69.389420 
	C74.290894,76.982117 70.664032,84.572334 66.682892,92.909424 
	C65.492920,90.931625 64.732750,89.872383 64.178627,88.714531 
	C60.159126,80.315674 56.131760,71.919922 52.203228,63.478355 
	C47.778778,53.971146 44.982605,52.522217 33.925613,54.584126 
	C35.736279,58.209156 37.500420,61.741035 39.665756,65.904305 
M358.366638,103.098114 
	C366.487305,103.078590 367.757690,101.713577 365.838989,94.611603 
	C364.632904,94.611603 363.315887,94.676933 362.007050,94.601280 
	C351.341156,93.984825 349.119568,91.607323 349.108185,80.802689 
	C349.096985,70.162735 349.121796,59.522732 349.098267,48.882824 
	C349.085724,43.203003 348.247986,42.432938 342.343933,42.428501 
	C336.408569,42.424046 335.459595,43.244377 335.440826,48.821205 
	C335.400024,60.957272 335.410889,73.093597 335.433258,85.229767 
	C335.453094,95.983147 340.248260,101.431854 350.956451,102.800079 
	C353.091583,103.072906 355.270142,103.006203 358.366638,103.098114 
M114.745583,83.497688 
	C114.743820,75.361580 114.716896,67.225372 114.749504,59.089401 
	C114.769936,53.993484 111.390419,53.863045 107.608994,53.865334 
	C103.890228,53.867588 100.993011,54.332726 101.026321,59.103947 
	C101.116737,72.054680 101.117470,85.006866 101.027496,97.957603 
	C100.994118,102.761551 103.934372,103.152557 107.632355,103.144150 
	C111.386520,103.135612 114.820312,103.099335 114.752983,97.945518 
	C114.694427,93.463142 114.743805,88.979355 114.745583,83.497688 
M297.163971,161.954086 
	C299.593231,160.140762 303.022522,158.845428 304.276947,156.423584 
	C309.437408,146.460587 303.856293,137.420135 292.667969,137.036224 
	C289.704102,136.934525 286.651367,137.037903 283.761841,137.637299 
	C277.248627,138.988373 274.741669,142.925278 275.010925,150.603195 
	C275.251221,157.453979 278.069061,161.164642 284.455261,161.977051 
	C288.363007,162.474197 292.385254,162.071381 297.163971,161.954086 
M178.521423,162.072678 
	C182.656921,162.049316 186.992676,162.782333 190.863052,161.757599 
	C193.832169,160.971497 197.707870,158.470779 198.585953,155.860001 
	C201.583374,146.947968 200.212601,136.964050 186.125916,136.975006 
	C184.464325,136.976288 182.796753,136.938980 181.142212,137.059799 
	C173.796448,137.596115 170.091309,140.500061 169.323578,146.781097 
	C168.384460,154.464279 170.331284,160.470718 178.521423,162.072678 
M330.244293,137.944977 
	C324.787720,137.684616 319.313171,137.088486 313.886017,137.378525 
	C312.355713,137.460297 309.818420,140.058075 309.708008,141.639084 
	C309.239197,148.353897 309.508972,155.120270 309.508972,161.994461 
	C311.900391,161.994461 313.832703,161.994461 316.272949,161.994461 
	C316.272949,155.216476 316.272949,148.652649 316.272949,141.764008 
	C318.426025,141.764008 320.071045,141.747498 321.715668,141.766907 
	C328.333282,141.845062 329.084045,142.607925 329.110962,149.324600 
	C329.127502,153.453323 329.114014,157.582184 329.114014,161.904465 
	C331.467407,161.904465 333.536621,161.904465 335.763947,161.904465 
	C335.763947,156.439789 335.726044,151.291382 335.776764,146.143814 
	C335.812866,142.480377 334.510742,139.683334 330.244293,137.944977 
M342.715698,157.876068 
	C339.003906,157.534607 339.720642,159.776596 340.258575,162.208939 
	C346.154602,162.208939 351.976990,162.181229 357.798950,162.219101 
	C361.407013,162.242569 364.497284,161.674957 365.083099,157.244537 
	C365.672607,152.786423 363.499542,150.301666 359.445099,149.183655 
	C356.079254,148.255524 352.606171,147.667236 349.316956,146.532959 
	C347.856567,146.029358 346.732178,144.551620 345.455261,143.516037 
	C345.714325,142.986862 345.973389,142.457672 346.232452,141.928497 
	C351.984711,141.928497 357.737000,141.928497 363.716400,141.928497 
	C363.716400,140.083542 363.716400,138.841385 363.716400,137.142868 
	C358.258270,137.142868 352.959717,137.115784 347.661591,137.151550 
	C343.525391,137.179489 339.803375,138.067749 339.359833,143.077255 
	C338.934631,147.879501 342.203949,149.824310 346.200439,150.870239 
	C349.416779,151.711990 352.729736,152.222244 355.885132,153.236435 
	C356.858582,153.549301 357.454865,155.035690 358.223846,155.984756 
	C357.202637,156.611450 356.209259,157.717560 355.155182,157.778809 
	C351.335663,158.000763 347.495728,157.872086 342.715698,157.876068 
M148.614456,162.207382 
	C152.107498,162.206558 155.600571,162.196274 159.093567,162.207642 
	C162.464218,162.218613 165.448105,161.737869 166.153488,157.594223 
	C166.897568,153.223251 165.041855,150.500214 160.939499,149.303574 
	C157.435379,148.281464 153.796646,147.687149 150.352570,146.508728 
	C148.903564,146.012939 147.802094,144.501389 146.542648,143.451584 
	C146.808975,142.938095 147.075302,142.424622 147.341644,141.911133 
	C153.094040,141.911133 158.846436,141.911133 165.019943,141.911133 
	C164.884903,139.969574 164.791748,138.630371 164.688858,137.151138 
	C158.924759,137.151138 153.612152,137.061325 148.304352,137.182068 
	C144.639328,137.265457 141.245865,138.003372 140.611954,142.564224 
	C139.942337,147.382095 142.788834,149.600723 146.830597,150.740295 
	C150.021622,151.640015 153.355133,152.064178 156.497513,153.090836 
	C157.658432,153.470123 158.454056,154.967484 159.416290,155.954895 
	C158.225021,156.594727 157.056015,157.732224 155.838577,157.786636 
	C151.046143,158.000824 146.238495,157.874405 141.173798,157.874405 
	C141.173798,159.407532 141.173798,160.643082 141.173798,162.207367 
	C143.385452,162.207367 145.526230,162.207367 148.614456,162.207382 
M218.130814,160.450836 
	C224.851227,160.998215 231.566391,161.696732 238.297714,161.931259 
	C239.316040,161.966736 241.279099,159.877548 241.326035,158.711624 
	C241.611389,151.621689 241.468369,144.514526 241.468369,137.350830 
	C239.089569,137.350830 237.314926,137.350830 234.847687,137.350830 
	C234.847687,144.241272 234.847687,150.949570 234.847687,157.878860 
	C232.666641,157.878860 231.178009,157.881485 229.689377,157.878418 
	C222.532455,157.863678 221.388947,156.714752 221.347900,149.423401 
	C221.325531,145.449417 221.343918,141.475220 221.343918,137.485870 
	C219.014236,137.485870 217.127655,137.485870 214.980377,137.485870 
	C214.980377,143.304703 214.765594,148.796677 215.094833,154.255844 
	C215.212830,156.212784 216.643600,158.090546 218.130814,160.450836 
M259.051331,141.728653 
	C262.837799,142.174728 262.641724,140.052475 261.901978,137.330734 
	C259.381775,137.190323 256.972107,137.056076 254.408386,136.913239 
	C254.234604,134.195679 254.080887,131.791565 253.925140,129.355804 
	C251.768265,129.355804 250.000687,129.355804 247.917404,129.355804 
	C247.917404,131.845932 247.917404,134.128693 247.917404,135.609894 
	C246.199387,137.171677 243.998795,138.408340 244.148026,139.204758 
	C244.411392,140.610443 246.107132,141.747772 247.814941,143.694794 
	C247.814941,146.444809 247.873550,150.266769 247.800308,154.086197 
	C247.705460,159.033569 250.505524,161.383011 254.993820,161.984344 
	C257.250061,162.286636 259.580261,162.037064 262.051819,162.037064 
	C262.051819,160.611450 262.051819,159.388763 262.051819,158.203812 
	C253.658951,157.062592 252.525040,154.469376 254.754654,141.895035 
	C255.875961,141.840652 257.028625,141.784729 259.051331,141.728653 
M210.096313,154.455780 
	C210.096313,146.068619 210.096313,137.681458 210.096313,129.087128 
	C207.572556,129.202545 205.827377,129.282349 204.090469,129.361771 
	C204.090469,140.504730 204.090469,151.207977 204.090469,161.976349 
	C206.137253,161.976349 207.890762,161.976349 210.096313,161.976349 
	C210.096313,159.670380 210.096313,157.557831 210.096313,154.455780 
M264.847168,138.846100 
	C264.847168,146.572662 264.847168,154.299225 264.847168,161.933502 
	C267.228119,161.933502 268.980286,161.933502 270.821381,161.933502 
	C270.821381,153.652283 270.821381,145.610657 270.821381,136.906479 
	C268.665375,137.285797 266.841431,137.606689 264.847168,138.846100 
M102.612419,41.022007 
	C101.912048,44.638203 101.211685,48.254402 100.578964,51.521301 
	C104.524284,50.662468 107.646370,50.399586 110.385887,49.235989 
	C112.133202,48.493832 114.163857,46.611290 114.554626,44.895508 
	C115.181389,42.143547 113.338379,40.155594 110.246727,40.160309 
	C107.947388,40.163815 105.648453,40.434952 102.612419,41.022007 
M271.074646,131.485168 
	C270.195099,128.985718 266.815338,127.923615 264.797913,129.704559 
	C264.870239,130.985413 264.949921,132.396790 265.096069,134.986008 
	C267.469696,133.967880 269.268646,133.196228 271.074646,131.485168 
z"/>
<path fill="#EC2031" opacity="1.000000" stroke="none" 
	d="
M248.758118,102.556885 
	C238.153397,100.076851 234.783920,95.837296 234.771088,85.347672 
	C234.761963,77.891663 234.769302,70.435646 234.769302,62.642281 
	C225.267380,62.642281 216.213928,62.642281 206.940750,62.642281 
	C206.940750,71.074829 206.715546,79.349930 207.041275,87.603279 
	C207.191086,91.399399 210.244675,93.319687 213.781754,93.930855 
	C217.019226,94.490265 220.321869,94.672546 223.561050,95.017311 
	C224.482574,102.235718 223.776382,103.072746 216.807556,103.080513 
	C214.810501,103.082733 212.810837,103.069687 210.816727,102.973328 
	C198.175751,102.362473 192.912506,96.831398 192.910690,84.193230 
	C192.909683,77.082581 192.910507,69.971924 192.910507,62.972145 
	C184.110199,61.336224 184.110199,61.336224 184.529465,54.326550 
	C185.721832,54.197395 186.979523,54.005676 188.243790,53.939556 
	C189.553574,53.871052 190.869736,53.924301 191.997604,53.924301 
	C192.859497,50.177288 193.098663,46.479755 194.694382,43.511501 
	C195.330521,42.328201 198.968323,42.472443 201.233261,42.502068 
	C209.594101,42.611412 205.117401,49.723759 207.189789,53.641953 
	C216.084122,53.641953 225.145554,53.641953 234.021896,53.641953 
	C234.766144,50.035549 235.035690,46.556236 236.362091,43.541988 
	C236.795990,42.555969 239.966202,42.636101 241.905563,42.474003 
	C251.092209,41.706150 247.061340,49.222839 248.717941,53.823166 
	C253.978149,53.823166 259.379883,53.823166 264.669830,53.823166 
	C265.901581,61.211918 265.123932,62.240028 258.719208,62.292126 
	C255.424881,62.318924 252.130173,62.296837 248.544495,62.296837 
	C248.544495,70.841187 248.303772,78.929337 248.643829,86.992981 
	C248.819626,91.161232 251.886566,93.396133 255.923035,93.994255 
	C259.025757,94.454010 262.161438,94.691566 265.245422,95.023949 
	C266.460236,101.697723 265.434540,103.083900 259.144440,103.063148 
	C255.820923,103.052185 252.498154,102.804100 248.758118,102.556885 
z"/>
<path fill="#EC2131" opacity="1.000000" stroke="none" 
	d="
M159.032791,94.709206 
	C166.004318,94.709137 172.481247,94.709137 178.873184,94.709137 
	C180.514954,101.178810 179.193802,103.064789 173.143005,103.074226 
	C162.657745,103.090561 152.168350,103.206909 141.688095,102.963089 
	C129.681305,102.683746 123.558540,97.066948 122.444176,85.183060 
	C121.997421,80.418724 122.141273,75.518417 122.693504,70.758568 
	C123.695145,62.124973 128.107681,56.385513 136.604736,55.470306 
	C146.902893,54.361103 157.500870,54.204941 167.784836,55.326298 
	C177.425873,56.377548 182.144455,63.913628 181.460861,73.635567 
	C181.050522,79.471519 178.491180,82.008537 172.564392,82.054344 
	C161.746338,82.137970 150.927200,82.080368 140.108505,82.081657 
	C139.125778,82.081772 138.143066,82.081680 137.214554,82.081680 
	C135.833237,89.894638 138.212128,93.466225 145.584076,94.277962 
	C149.866013,94.749458 154.217819,94.586655 159.032791,94.709206 
M159.331161,62.843987 
	C154.703995,62.750629 149.981705,62.026047 145.471008,62.705727 
	C137.923706,63.842968 135.419693,68.198235 136.759247,75.246796 
	C140.863693,74.773308 144.882248,74.115410 148.924606,73.896317 
	C153.242599,73.662285 157.594391,74.023491 161.908188,73.753586 
	C163.659973,73.643982 166.805374,72.547928 166.802536,71.911957 
	C166.793121,69.803139 166.037476,67.413727 164.796356,65.686508 
	C163.847595,64.366165 161.729523,63.886063 159.331161,62.843987 
z"/>
<path fill="#EC2031" opacity="1.000000" stroke="none" 
	d="
M275.675049,58.580269 
	C289.613251,51.613037 303.803650,52.354290 317.781952,56.378830 
	C325.679596,58.652679 329.556976,67.263710 327.851288,75.390114 
	C326.894043,79.950722 323.915436,82.097038 319.262482,82.083595 
	C308.934448,82.053741 298.606262,82.077454 288.278137,82.079224 
	C286.639832,82.079506 285.001495,82.079262 283.409515,82.079262 
	C282.510651,90.330818 284.717529,93.779861 292.230927,94.265976 
	C301.355591,94.856331 310.535004,94.604912 319.690796,94.708153 
	C321.644867,94.730186 323.599396,94.711349 325.473511,94.711349 
	C326.472076,102.045364 325.676758,103.070381 319.214905,103.075569 
	C308.887238,103.083862 298.555450,103.204170 288.232819,102.962685 
	C275.618195,102.667572 269.378448,96.382278 268.865814,83.749573 
	C268.704010,79.762360 268.747711,75.752579 268.965088,71.767738 
	C269.247925,66.583931 271.019867,62.022900 275.675049,58.580269 
M303.408813,73.840218 
	C305.238403,73.839706 307.112366,74.085678 308.884674,73.766777 
	C310.534485,73.469925 312.937927,72.955666 313.436798,71.836212 
	C314.000214,70.571846 313.265839,68.159622 312.265991,66.911240 
	C310.995148,65.324547 309.009674,63.643929 307.122040,63.348774 
	C302.413483,62.612545 297.519897,62.005352 292.821045,62.497292 
	C284.831573,63.333733 282.020813,67.821655 283.199493,74.741402 
	C289.720001,74.435928 296.078583,74.138046 303.408813,73.840218 
z"/>
<path fill="#ED2233" opacity="1.000000" stroke="none" 
	d="
M39.465157,65.588608 
	C37.500420,61.741035 35.736279,58.209156 33.925613,54.584126 
	C44.982605,52.522217 47.778778,53.971146 52.203228,63.478355 
	C56.131760,71.919922 60.159126,80.315674 64.178627,88.714531 
	C64.732750,89.872383 65.492920,90.931625 66.682892,92.909424 
	C70.664032,84.572334 74.290894,76.982117 77.912567,69.389420 
	C78.843727,67.437279 79.759697,65.477875 80.680656,63.520874 
	C85.223335,53.867870 87.542702,52.686604 99.044380,54.492741 
	C93.611763,65.088417 88.257874,75.557877 82.876320,86.013100 
	C80.745399,90.153000 78.371346,94.178230 76.438843,98.406868 
	C74.439728,102.781258 70.824158,103.720535 66.625488,103.776337 
	C62.202183,103.835121 58.519913,102.679573 56.310833,98.289841 
	C50.854904,87.448151 45.225460,76.693771 39.465157,65.588608 
z"/>
<path fill="#ED2535" opacity="1.000000" stroke="none" 
	d="
M357.897644,103.097092 
	C355.270142,103.006203 353.091583,103.072906 350.956451,102.800079 
	C340.248260,101.431854 335.453094,95.983147 335.433258,85.229767 
	C335.410889,73.093597 335.400024,60.957272 335.440826,48.821205 
	C335.459595,43.244377 336.408569,42.424046 342.343933,42.428501 
	C348.247986,42.432938 349.085724,43.203003 349.098267,48.882824 
	C349.121796,59.522732 349.096985,70.162735 349.108185,80.802689 
	C349.119568,91.607323 351.341156,93.984825 362.007050,94.601280 
	C363.315887,94.676933 364.632904,94.611603 365.838989,94.611603 
	C367.757690,101.713577 366.487305,103.078590 357.897644,103.097092 
z"/>
<path fill="#ED2536" opacity="1.000000" stroke="none" 
	d="
M114.745529,83.996941 
	C114.743805,88.979355 114.694427,93.463142 114.752983,97.945518 
	C114.820312,103.099335 111.386520,103.135612 107.632355,103.144150 
	C103.934372,103.152557 100.994118,102.761551 101.027496,97.957603 
	C101.117470,85.006866 101.116737,72.054680 101.026321,59.103947 
	C100.993011,54.332726 103.890228,53.867588 107.608994,53.865334 
	C111.390419,53.863045 114.769936,53.993484 114.749504,59.089401 
	C114.716896,67.225372 114.743820,75.361580 114.745529,83.996941 
z"/>
<path fill="#0E0E0E" opacity="1.000000" stroke="none" 
	d="
M296.760010,162.013397 
	C292.385254,162.071381 288.363007,162.474197 284.455261,161.977051 
	C278.069061,161.164642 275.251221,157.453979 275.010925,150.603195 
	C274.741669,142.925278 277.248627,138.988373 283.761841,137.637299 
	C286.651367,137.037903 289.704102,136.934525 292.667969,137.036224 
	C303.856293,137.420135 309.437408,146.460587 304.276947,156.423584 
	C303.022522,158.845428 299.593231,160.140762 296.760010,162.013397 
M287.963867,157.952667 
	C291.060577,157.249207 295.878174,157.470245 296.865051,155.633331 
	C298.490082,152.608459 298.770477,147.822525 297.538116,144.565918 
	C296.019501,140.552734 291.399323,141.067780 287.515778,141.662552 
	C283.780365,142.234619 282.088562,144.435928 281.948822,148.069275 
	C281.784760,152.335175 281.674927,156.563705 287.963867,157.952667 
z"/>
<path fill="#0F0F0F" opacity="1.000000" stroke="none" 
	d="
M178.120361,162.018280 
	C170.331284,160.470718 168.384460,154.464279 169.323578,146.781097 
	C170.091309,140.500061 173.796448,137.596115 181.142212,137.059799 
	C182.796753,136.938980 184.464325,136.976288 186.125916,136.975006 
	C200.212601,136.964050 201.583374,146.947968 198.585953,155.860001 
	C197.707870,158.470779 193.832169,160.971497 190.863052,161.757599 
	C186.992676,162.782333 182.656921,162.049316 178.120361,162.018280 
M188.655304,157.643829 
	C193.462189,155.735001 193.142258,151.599808 192.894562,147.605118 
	C192.586655,142.639221 188.959152,141.534378 184.914459,141.296051 
	C179.730896,140.990601 176.835052,143.032333 176.064743,147.240540 
	C174.576691,155.369858 178.083694,158.526993 188.655304,157.643829 
z"/>
<path fill="#151515" opacity="1.000000" stroke="none" 
	d="
M330.632416,138.049011 
	C334.510742,139.683334 335.812866,142.480377 335.776764,146.143814 
	C335.726044,151.291382 335.763947,156.439789 335.763947,161.904465 
	C333.536621,161.904465 331.467407,161.904465 329.114014,161.904465 
	C329.114014,157.582184 329.127502,153.453323 329.110962,149.324600 
	C329.084045,142.607925 328.333282,141.845062 321.715668,141.766907 
	C320.071045,141.747498 318.426025,141.764008 316.272949,141.764008 
	C316.272949,148.652649 316.272949,155.216476 316.272949,161.994461 
	C313.832703,161.994461 311.900391,161.994461 309.508972,161.994461 
	C309.508972,155.120270 309.239197,148.353897 309.708008,141.639084 
	C309.818420,140.058075 312.355713,137.460297 313.886017,137.378525 
	C319.313171,137.088486 324.787720,137.684616 330.632416,138.049011 
z"/>
<path fill="#111111" opacity="1.000000" stroke="none" 
	d="
M343.189606,157.875885 
	C347.495728,157.872086 351.335663,158.000763 355.155182,157.778809 
	C356.209259,157.717560 357.202637,156.611450 358.223846,155.984741 
	C357.454865,155.035690 356.858582,153.549301 355.885132,153.236435 
	C352.729736,152.222244 349.416779,151.711990 346.200439,150.870239 
	C342.203949,149.824310 338.934631,147.879501 339.359833,143.077255 
	C339.803375,138.067749 343.525391,137.179489 347.661591,137.151550 
	C352.959717,137.115784 358.258270,137.142868 363.716400,137.142868 
	C363.716400,138.841385 363.716400,140.083542 363.716400,141.928497 
	C357.737000,141.928497 351.984711,141.928497 346.232452,141.928497 
	C345.973389,142.457672 345.714325,142.986862 345.455261,143.516037 
	C346.732178,144.551620 347.856567,146.029358 349.316956,146.532959 
	C352.606171,147.667236 356.079254,148.255524 359.445099,149.183655 
	C363.499542,150.301666 365.672607,152.786423 365.083099,157.244537 
	C364.497284,161.674957 361.407013,162.242569 357.798950,162.219101 
	C351.976990,162.181229 346.154602,162.208939 340.258575,162.208939 
	C339.720642,159.776596 339.003906,157.534607 343.189606,157.875885 
z"/>
<path fill="#101010" opacity="1.000000" stroke="none" 
	d="
M148.140732,162.207367 
	C145.526230,162.207367 143.385452,162.207367 141.173798,162.207367 
	C141.173798,160.643082 141.173798,159.407532 141.173798,157.874405 
	C146.238495,157.874405 151.046143,158.000824 155.838577,157.786636 
	C157.056015,157.732224 158.225021,156.594727 159.416290,155.954895 
	C158.454056,154.967484 157.658432,153.470123 156.497513,153.090836 
	C153.355133,152.064178 150.021622,151.640015 146.830597,150.740295 
	C142.788834,149.600723 139.942337,147.382095 140.611954,142.564224 
	C141.245865,138.003372 144.639328,137.265457 148.304352,137.182068 
	C153.612152,137.061325 158.924759,137.151138 164.688858,137.151138 
	C164.791748,138.630371 164.884903,139.969574 165.019943,141.911133 
	C158.846436,141.911133 153.094040,141.911133 147.341644,141.911133 
	C147.075302,142.424622 146.808975,142.938095 146.542648,143.451584 
	C147.802094,144.501389 148.903564,146.012939 150.352570,146.508728 
	C153.796646,147.687149 157.435379,148.281464 160.939499,149.303574 
	C165.041855,150.500214 166.897568,153.223251 166.153488,157.594223 
	C165.448105,161.737869 162.464218,162.218613 159.093567,162.207642 
	C155.600571,162.196274 152.107498,162.206558 148.140732,162.207367 
z"/>
<path fill="#0F0F0F" opacity="1.000000" stroke="none" 
	d="
M217.803009,160.227646 
	C216.643600,158.090546 215.212830,156.212784 215.094833,154.255844 
	C214.765594,148.796677 214.980377,143.304703 214.980377,137.485870 
	C217.127655,137.485870 219.014236,137.485870 221.343918,137.485870 
	C221.343918,141.475220 221.325531,145.449417 221.347900,149.423401 
	C221.388947,156.714752 222.532455,157.863678 229.689377,157.878418 
	C231.178009,157.881485 232.666641,157.878860 234.847687,157.878860 
	C234.847687,150.949570 234.847687,144.241272 234.847687,137.350830 
	C237.314926,137.350830 239.089569,137.350830 241.468369,137.350830 
	C241.468369,144.514526 241.611389,151.621689 241.326035,158.711624 
	C241.279099,159.877548 239.316040,161.966736 238.297714,161.931259 
	C231.566391,161.696732 224.851227,160.998215 217.803009,160.227646 
z"/>
<path fill="#0B0B0B" opacity="1.000000" stroke="none" 
	d="
M258.616302,141.728729 
	C257.028625,141.784729 255.875961,141.840652 254.754654,141.895035 
	C252.525040,154.469376 253.658951,157.062592 262.051819,158.203812 
	C262.051819,159.388763 262.051819,160.611450 262.051819,162.037064 
	C259.580261,162.037064 257.250061,162.286636 254.993820,161.984344 
	C250.505524,161.383011 247.705460,159.033569 247.800308,154.086197 
	C247.873550,150.266769 247.814941,146.444809 247.814941,143.694794 
	C246.107132,141.747772 244.411392,140.610443 244.148026,139.204758 
	C243.998795,138.408340 246.199387,137.171677 247.917404,135.609894 
	C247.917404,134.128693 247.917404,131.845932 247.917404,129.355804 
	C250.000687,129.355804 251.768265,129.355804 253.925140,129.355804 
	C254.080887,131.791565 254.234604,134.195679 254.408386,136.913239 
	C256.972107,137.056076 259.381775,137.190323 261.901978,137.330734 
	C262.641724,140.052475 262.837799,142.174728 258.616302,141.728729 
z"/>
<path fill="#060606" opacity="1.000000" stroke="none" 
	d="
M210.096313,154.950531 
	C210.096313,157.557831 210.096313,159.670380 210.096313,161.976349 
	C207.890762,161.976349 206.137253,161.976349 204.090469,161.976349 
	C204.090469,151.207977 204.090469,140.504730 204.090469,129.361771 
	C205.827377,129.282349 207.572556,129.202545 210.096313,129.087128 
	C210.096313,137.681458 210.096313,146.068619 210.096313,154.950531 
z"/>
<path fill="#030303" opacity="1.000000" stroke="none" 
	d="
M264.932312,138.386841 
	C266.841431,137.606689 268.665375,137.285797 270.821381,136.906479 
	C270.821381,145.610657 270.821381,153.652283 270.821381,161.933502 
	C268.980286,161.933502 267.228119,161.933502 264.847168,161.933502 
	C264.847168,154.299225 264.847168,146.572662 264.932312,138.386841 
z"/>
<path fill="#ED2C3C" opacity="1.000000" stroke="none" 
	d="
M102.980881,40.804447 
	C105.648453,40.434952 107.947388,40.163815 110.246727,40.160309 
	C113.338379,40.155594 115.181389,42.143547 114.554626,44.895508 
	C114.163857,46.611290 112.133202,48.493832 110.385887,49.235989 
	C107.646370,50.399586 104.524284,50.662468 100.578964,51.521301 
	C101.211685,48.254402 101.912048,44.638203 102.980881,40.804447 
z"/>
<path fill="#030303" opacity="1.000000" stroke="none" 
	d="
M271.071106,131.954880 
	C269.268646,133.196228 267.469696,133.967880 265.096069,134.986008 
	C264.949921,132.396790 264.870239,130.985413 264.797913,129.704559 
	C266.815338,127.923615 270.195099,128.985718 271.071106,131.954880 
z"/>
<path fill="#FEF4F4" opacity="1.000000" stroke="none" 
	d="
M159.731369,62.938099 
	C161.729523,63.886063 163.847595,64.366165 164.796356,65.686508 
	C166.037476,67.413727 166.793121,69.803139 166.802536,71.911957 
	C166.805374,72.547928 163.659973,73.643982 161.908188,73.753586 
	C157.594391,74.023491 153.242599,73.662285 148.924606,73.896317 
	C144.882248,74.115410 140.863693,74.773308 136.759247,75.246796 
	C135.419693,68.198235 137.923706,63.842968 145.471008,62.705727 
	C149.981705,62.026047 154.703995,62.750629 159.731369,62.938099 
z"/>
<path fill="#FEF5F6" opacity="1.000000" stroke="none" 
	d="
M302.922974,73.840195 
	C296.078583,74.138046 289.720001,74.435928 283.199493,74.741402 
	C282.020813,67.821655 284.831573,63.333733 292.821045,62.497292 
	C297.519897,62.005352 302.413483,62.612545 307.122040,63.348774 
	C309.009674,63.643929 310.995148,65.324547 312.265991,66.911240 
	C313.265839,68.159622 314.000214,70.571846 313.436798,71.836212 
	C312.937927,72.955666 310.534485,73.469925 308.884674,73.766777 
	C307.112366,74.085678 305.238403,73.839706 302.922974,73.840195 
z"/>
<path fill="#F6F6F6" opacity="1.000000" stroke="none" 
	d="
M287.545593,157.902878 
	C281.674927,156.563705 281.784760,152.335175 281.948822,148.069275 
	C282.088562,144.435928 283.780365,142.234619 287.515778,141.662552 
	C291.399323,141.067780 296.019501,140.552734 297.538116,144.565918 
	C298.770477,147.822525 298.490082,152.608459 296.865051,155.633331 
	C295.878174,157.470245 291.060577,157.249207 287.545593,157.902878 
z"/>
<path fill="#F7F7F7" opacity="1.000000" stroke="none" 
	d="
M188.246948,157.741821 
	C178.083694,158.526993 174.576691,155.369858 176.064743,147.240540 
	C176.835052,143.032333 179.730896,140.990601 184.914459,141.296051 
	C188.959152,141.534378 192.586655,142.639221 192.894562,147.605118 
	C193.142258,151.599808 193.462189,155.735001 188.246948,157.741821 
z"/>
</svg>